#!OML:ASF F:\VICON\USERDATA\INSTALL\rory3\rory3.ASF
:FULLY-SPECIFIED
:DEGREES
335
root -8.7567 18.0101 10.7298 -10.55 -47.6607 8.89465
lowerback 11.0573 2.52307 -3.48612
upperback 0.839403 2.83663 -1.04418
thorax -5.43791 1.45516 0.425302
lowerneck -20.416 -4.53001 -9.36635
upperneck 25.013 -4.96833 5.42684
head 11.9991 -2.46798 2.78509
rclavicle 1.10276e-013 -2.5842e-014
rhumerus -33.051 -14.1652 -78.9244
rradius 31.3344
rwrist 8.31341
rhand -14.0773 11.0217
rfingers 7.12502
rthumb 12.0546 -18.6111
lclavicle 1.10276e-013 -2.5842e-014
lhumerus -37.5531 5.40326 82.2792
lradius 27.4194
lwrist -13.7449
lhand -11.5706 25.0745
lfingers 7.12502
lthumb 14.4708 54.5499
rfemur -9.13294 -1.10839 14.0781
rtibia 72.0234
rfoot 7.7273 -1.39704
rtoes 8.38434
lfemur 0.283223 4.4714 -30.3469
ltibia 3.56353
lfoot 3.19671 -8.83735
ltoes 4.29368
336
root -8.86252 18.0092 10.8388 -10.5866 -47.4439 8.85283
lowerback 10.9666 2.35814 -3.45338
upperback 0.992574 2.62654 -1.07617
thorax -5.21529 1.34664 0.415356
lowerneck -20.7146 -4.41947 -9.18276
upperneck 25.1841 -4.82139 5.33183
head 12.1034 -2.39411 2.74296
rclavicle 2.98177e-016 1.55052e-014
rhumerus -32.8008 -14.4462 -79.1398
rradius 31.3613
rwrist 8.65008
rhand -13.9705 10.9484
rfingers 7.12502
rthumb 12.1575 -18.6783
lclavicle 2.98177e-016 1.55052e-014
lhumerus -37.171 5.20966 82.3324
lradius 27.72
lwrist -13.2516
lhand -12.0901 25.0331
lfingers 7.12502
lthumb 13.9701 54.5437
rfemur -10.3787 -1.3069 14.1338
rtibia 72.9718
rfoot 6.17154 -1.92619
rtoes 7.45609
lfemur 1.41056 4.38284 -30.3328
ltibia 2.55252
lfoot 3.27874 -8.98055
ltoes 5.47943
337
root -8.96912 18.0073 10.9454 -10.583 -47.1156 8.81353
lowerback 10.914 2.15128 -3.48503
upperback 1.10428 2.3516 -1.08919
thorax -5.0594 1.20878 0.46751
lowerneck -20.9309 -4.36577 -9.143
upperneck 25.2476 -4.75473 5.38652
head 12.1653 -2.35048 2.76775
rclavicle 5.70264e-015 2.14687e-014
rhumerus -32.6282 -14.4387 -79.3729
rradius 31.4411
rwrist 8.65253
rhand -13.9678 11.098
rfingers 7.12502
rthumb 12.1602 -18.5286
lclavicle 5.70264e-015 2.14687e-014
lhumerus -36.8288 5.00269 82.4047
lradius 28.0097
lwrist -13.0561
lhand -12.8408 25.0433
lfingers 7.12502
lthumb 13.2466 54.6024
rfemur -11.6463 -1.76928 14.125
rtibia 73.7564
rfoot 4.82005 -2.29281
rtoes 6.5158
lfemur 2.03809 4.17366 -30.3814
ltibia 2.47699
lfoot 2.83995 -8.96232
ltoes 4.35768
338
root -9.07587 18.0034 11.0543 -10.6398 -46.8431 8.92089
lowerback 10.8781 2.01356 -3.61941
upperback 1.0404 2.1548 -1.06474
thorax -5.10535 1.11644 0.598494
lowerneck -20.7505 -4.32908 -9.32181
upperneck 25.3228 -4.69871 5.49929
head 12.1625 -2.33332 2.85307
rclavicle 1.15295e-014 -2.62396e-014
rhumerus -32.8168 -14.2445 -79.3937
rradius 31.5918
rwrist 8.50002
rhand -14.0538 11.252
rfingers 7.12502
rthumb 12.0772 -18.3795
lclavicle 1.15295e-014 -2.62396e-014
lhumerus -36.6884 4.73142 82.5392
lradius 28.2229
lwrist -12.9752
lhand -12.8853 25.0677
lfingers 7.12502
lthumb 13.2037 54.6296
rfemur -12.9312 -2.28095 13.968
rtibia 74.3796
rfoot 3.53666 -2.51812
rtoes 5.86615
lfemur 1.99643 4.02389 -30.541
ltibia 3.62876
lfoot 1.82215 -8.76216
ltoes 3.47997
339
root -9.18154 17.9986 11.1647 -10.5949 -46.6687 8.93214
lowerback 10.7892 1.89403 -3.66082
upperback 0.960556 1.99663 -1.02951
thorax -5.13609 1.04166 0.68399
lowerneck -20.6227 -4.24727 -9.26715
upperneck 25.4916 -4.58327 5.36024
head 12.1878 -2.3004 2.81393
rclavicle -5.41937e-014 7.95139e-016
rhumerus -33.0085 -14.1743 -79.4063
rradius 31.7388
rwrist 8.44555
rhand -14.1271 11.173
rfingers 7.12502
rthumb 12.0065 -18.4626
lclavicle -5.41937e-014 7.95139e-016
lhumerus -36.5674 4.4108 82.7012
lradius 28.5263
lwrist -12.5914
lhand -12.4957 25.3301
lfingers 7.12502
lthumb 13.5793 54.8673
rfemur -14.2757 -2.56321 13.9693
rtibia 74.8536
rfoot 2.32311 -2.67934
rtoes 6.13392
lfemur 1.89586 3.95268 -30.5972
ltibia 4.81322
lfoot 0.83864 -8.56055
ltoes 4.16905
340
root -9.28514 17.9885 11.2695 -10.536 -46.4058 8.93144
lowerback 10.7477 1.75617 -3.76231
upperback 0.918862 1.80506 -0.992402
thorax -5.15322 0.950933 0.809514
lowerneck -20.5802 -4.15984 -9.07687
upperneck 25.5781 -4.47756 5.17289
head 12.1936 -2.26164 2.72989
rclavicle 4.57205e-014 1.59028e-015
rhumerus -33.0554 -14.3183 -79.4302
rradius 31.8019
rwrist 8.44415
rhand -14.1363 11.1953
rfingers 7.12502
rthumb 11.9977 -18.4408
lclavicle 4.57205e-014 1.59028e-015
lhumerus -36.432 4.01937 82.9327
lradius 28.8986
lwrist -12.0695
lhand -12.895 25.3054
lfingers 7.12502
lthumb 13.1945 54.8679
rfemur -15.6202 -2.74578 14.0203
rtibia 75.1594
rfoot 0.975846 -2.94854
rtoes 6.19592
lfemur 1.64437 3.79274 -30.6571
ltibia 6.28798
lfoot -0.391185 -8.39875
ltoes 4.28311
341
root -9.38939 17.9735 11.3726 -10.6088 -46.1046 9.17497
lowerback 10.677 1.64981 -4.03641
upperback 0.883393 1.63338 -1.00164
thorax -5.15117 0.872789 0.981142
lowerneck -20.4963 -4.12888 -9.04973
upperneck 25.5598 -4.4403 5.13672
head 12.1648 -2.24844 2.7182
rclavicle 2.75068e-014 -2.18663e-014
rhumerus -33.2432 -14.018 -79.5801
rradius 32.272
rwrist 7.85571
rhand -14.1403 10.955
rfingers 7.12502
rthumb 11.9938 -18.6814
lclavicle 2.75068e-014 -2.18663e-014
lhumerus -36.251 3.45135 83.2235
lradius 29.2307
lwrist -11.7182
lhand -14.0311 25.0779
lfingers 7.12502
lthumb 12.0991 54.7081
rfemur -16.9501 -2.87398 13.8543
rtibia 75.2789
rfoot -0.464044 -3.12548
rtoes 6.07362
lfemur 1.23315 3.61638 -30.9069
ltibia 7.98459
lfoot -1.64307 -8.21922
ltoes 4.86489
